<svg width="343" height="32" viewBox="0 0 343 32" fill="none" xmlns="http://www.w3.org/2000/svg">
<g clip-path="url(#clip0_65_5241)">
<rect width="343" height="32" rx="8.91" fill="#767680" fill-opacity="0.12"/>
<g filter="url(#filter0_dd_65_5241)">
<rect x="2" y="2" width="173" height="28.0024" rx="6.93" fill="white"/>
<rect x="1.75" y="1.75" width="173.5" height="28.5024" rx="7.18" stroke="black" stroke-opacity="0.04" stroke-width="0.5"/>
</g>
<path d="M42.8379 17.7261C42.8379 15.7998 41.3511 14.4888 39.2198 14.4888H37.0079V12.0205H41.8345V10.4312H35.1182V21H39.2784C41.3804 21 42.8379 19.6816 42.8379 17.7261ZM37.0079 19.4473V15.9976H38.795C40.1353 15.9976 40.9044 16.6055 40.9044 17.7261C40.9044 18.8394 40.1353 19.4473 38.8023 19.4473H37.0079ZM45.1907 23.9004C46.9852 23.9004 47.8421 23.2485 48.5232 21.2783L51.4163 12.9946H49.4974L47.6297 19.2788H47.5052L45.6302 12.9946H43.638L46.5018 21.0293L46.4065 21.4028C46.1722 22.1572 45.74 22.4502 44.971 22.4502C44.8465 22.4502 44.5755 22.4429 44.4729 22.4282V23.8711C44.5901 23.8931 45.0809 23.9004 45.1907 23.9004ZM53.4322 23.0874V21H59.1744V23.0874H60.8443V19.5864H59.6138V12.9946H53.586L53.3077 17.1987C53.2344 18.2754 52.9854 19.2349 52.3921 19.5864H51.7622V23.0874H53.4322ZM57.7974 19.5864H54.3404V19.4546C54.6919 18.9565 54.875 18.1729 54.941 17.2939L55.146 14.4082H57.7974V19.5864ZM62.9773 23.9004C64.7718 23.9004 65.6287 23.2485 66.3098 21.2783L69.2029 12.9946H67.284L65.4163 19.2788H65.2918L63.4168 12.9946H61.4246L64.2884 21.0293L64.1931 21.4028C63.9588 22.1572 63.5266 22.4502 62.7576 22.4502C62.6331 22.4502 62.3621 22.4429 62.2596 22.4282V23.8711C62.3767 23.8931 62.8675 23.9004 62.9773 23.9004ZM81.3572 15.668C81.1668 14.0127 79.9216 12.8408 77.8635 12.8408C75.4539 12.8408 74.0403 14.3862 74.0403 16.979C74.0403 19.6011 75.4612 21.1611 77.8709 21.1611C79.8997 21.1611 81.1594 20.0332 81.3572 18.3779H79.6287C79.4382 19.2202 78.8084 19.667 77.8635 19.667C76.6257 19.667 75.8787 18.6782 75.8787 16.979C75.8787 15.3091 76.6184 14.3276 77.8635 14.3276C78.8596 14.3276 79.4602 14.8916 79.6287 15.668H81.3572ZM84.728 21V15.5361H84.8672L87.0718 20.6411H88.3755L90.5874 15.5361H90.7192V21H92.4624V12.9946H90.1919L87.8115 18.5684H87.6797L85.3066 12.9946H82.9922V21H84.728ZM98.0525 21.1611C100.447 21.1611 101.905 19.5938 101.905 16.9937C101.905 14.4082 100.44 12.8408 98.0525 12.8408C95.6721 12.8408 94.1999 14.4155 94.1999 16.9937C94.1999 19.5938 95.6501 21.1611 98.0525 21.1611ZM98.0525 19.6743C96.7854 19.6743 96.0603 18.6929 96.0603 17.001C96.0603 15.3091 96.7854 14.3276 98.0525 14.3276C99.3122 14.3276 100.037 15.3091 100.037 17.001C100.037 18.6929 99.3196 19.6743 98.0525 19.6743ZM109.282 12.9946H102.529V14.4155H104.998V21H106.814V14.4155H109.282V12.9946ZM115.136 12.8628C114.037 12.8628 113.107 13.4121 112.646 14.3203H112.521V12.9946H110.771V23.6587H112.587V19.7842H112.712C113.122 20.6338 114.008 21.1318 115.158 21.1318C117.179 21.1318 118.439 19.5425 118.439 17.001C118.439 14.4375 117.165 12.8628 115.136 12.8628ZM114.565 19.623C113.327 19.623 112.558 18.6196 112.551 17.001C112.558 15.3823 113.334 14.3789 114.572 14.3789C115.817 14.3789 116.572 15.3604 116.572 17.001C116.572 18.6416 115.824 19.623 114.565 19.623ZM125.392 18.8101C125.128 19.4106 124.505 19.7476 123.604 19.7476C122.411 19.7476 121.642 18.8979 121.598 17.543V17.4478H127.193V16.8691C127.193 14.3569 125.824 12.8408 123.539 12.8408C121.217 12.8408 119.774 14.4595 119.774 17.0303C119.774 19.5938 121.195 21.1611 123.553 21.1611C125.443 21.1611 126.783 20.2529 127.113 18.8101H125.392ZM123.531 14.2544C124.623 14.2544 125.34 15.0234 125.377 16.2393H121.605C121.686 15.0381 122.447 14.2544 123.531 14.2544ZM134.607 12.9946H127.854V14.4155H130.322V21H132.139V14.4155H134.607V12.9946ZM136.088 21H139.494C141.362 21 142.556 19.916 142.556 18.2095C142.556 16.5029 141.362 15.4116 139.494 15.4116H137.905V12.9946H136.088V21ZM139.274 16.8179C140.168 16.8179 140.747 17.3672 140.747 18.2021C140.747 19.0298 140.175 19.5864 139.274 19.5864H137.905V16.8179H139.274Z" fill="black"/>
<path d="M213.423 21V10.4312H204.861V21H206.509V11.8594H211.797V21H213.423ZM219.943 12.9067C218.859 12.9067 217.921 13.4561 217.438 14.3643H217.321V13.0459H215.805V23.6514H217.379V19.7988H217.504C217.921 20.6411 218.822 21.1318 219.958 21.1318C221.972 21.1318 223.253 19.5352 223.253 17.0229C223.253 14.4961 221.972 12.9067 219.943 12.9067ZM219.496 19.7842C218.178 19.7842 217.35 18.7222 217.35 17.0229C217.35 15.3164 218.178 14.2544 219.503 14.2544C220.836 14.2544 221.635 15.2944 221.635 17.0229C221.635 18.7515 220.836 19.7842 219.496 19.7842ZM228.426 21.1538C230.755 21.1538 232.183 19.5938 232.183 17.0229C232.183 14.4521 230.748 12.8921 228.426 12.8921C226.097 12.8921 224.661 14.4595 224.661 17.0229C224.661 19.5938 226.09 21.1538 228.426 21.1538ZM228.426 19.8135C227.056 19.8135 226.287 18.7954 226.287 17.0229C226.287 15.2505 227.056 14.2251 228.426 14.2251C229.788 14.2251 230.565 15.2505 230.565 17.0229C230.565 18.7881 229.788 19.8135 228.426 19.8135ZM240.74 15.6021C240.535 14.0566 239.326 12.8921 237.327 12.8921C235.005 12.8921 233.591 14.4668 233.591 16.9937C233.591 19.5718 235.012 21.1538 237.334 21.1538C239.304 21.1538 240.535 20.0479 240.74 18.4805H239.209C239.004 19.3447 238.323 19.8135 237.327 19.8135C236.016 19.8135 235.203 18.7515 235.203 16.9937C235.203 15.2725 236.008 14.2324 237.327 14.2324C238.381 14.2324 239.026 14.8257 239.209 15.6021H240.74ZM243.971 21V15.4702H244.111L246.447 20.6997H247.604L249.941 15.4702H250.08V21H251.618V13.0459H249.692L247.114 18.854H246.989L244.418 13.0459H242.441V21H243.971ZM257.179 21.1538C259.508 21.1538 260.936 19.5938 260.936 17.0229C260.936 14.4521 259.5 12.8921 257.179 12.8921C254.85 12.8921 253.414 14.4595 253.414 17.0229C253.414 19.5938 254.842 21.1538 257.179 21.1538ZM257.179 19.8135C255.809 19.8135 255.04 18.7954 255.04 17.0229C255.04 15.2505 255.809 14.2251 257.179 14.2251C258.541 14.2251 259.317 15.2505 259.317 17.0229C259.317 18.7881 258.541 19.8135 257.179 19.8135ZM268.196 13.0459H261.597V14.3057H264.109V21H265.684V14.3057H268.196V13.0459ZM273.874 12.9067C272.79 12.9067 271.853 13.4561 271.369 14.3643H271.252V13.0459H269.736V23.6514H271.311V19.7988H271.435C271.853 20.6411 272.753 21.1318 273.889 21.1318C275.903 21.1318 277.185 19.5352 277.185 17.0229C277.185 14.4961 275.903 12.9067 273.874 12.9067ZM273.427 19.7842C272.109 19.7842 271.281 18.7222 271.281 17.0229C271.281 15.3164 272.109 14.2544 273.435 14.2544C274.768 14.2544 275.566 15.2944 275.566 17.0229C275.566 18.7515 274.768 19.7842 273.427 19.7842ZM284.217 18.8687C283.925 19.5132 283.273 19.8647 282.321 19.8647C281.061 19.8647 280.248 18.9565 280.197 17.5137V17.4404H285.829V16.8984C285.829 14.4082 284.488 12.8921 282.269 12.8921C280.021 12.8921 278.592 14.5107 278.592 17.0376C278.592 19.5791 279.991 21.1538 282.277 21.1538C284.1 21.1538 285.389 20.2749 285.734 18.8687H284.217ZM282.262 14.1738C283.426 14.1738 284.188 15.0161 284.225 16.3052H280.197C280.284 15.0234 281.097 14.1738 282.262 14.1738ZM292.825 21H294.4V13.0459H292.825V16.2539H289.192V13.0459H287.618V21H289.192V17.5137H292.825V21ZM299.953 21.1538C302.282 21.1538 303.711 19.5938 303.711 17.0229C303.711 14.4521 302.275 12.8921 299.953 12.8921C297.624 12.8921 296.189 14.4595 296.189 17.0229C296.189 19.5938 297.617 21.1538 299.953 21.1538ZM299.953 19.8135C298.584 19.8135 297.815 18.7954 297.815 17.0229C297.815 15.2505 298.584 14.2251 299.953 14.2251C301.316 14.2251 302.092 15.2505 302.092 17.0229C302.092 18.7881 301.316 19.8135 299.953 19.8135Z" fill="black"/>
</g>
<defs>
<filter id="filter0_dd_65_5241" x="-6.5" y="-3.5" width="190" height="45.0023" filterUnits="userSpaceOnUse" color-interpolation-filters="sRGB">
<feFlood flood-opacity="0" result="BackgroundImageFix"/>
<feColorMatrix in="SourceAlpha" type="matrix" values="0 0 0 0 0 0 0 0 0 0 0 0 0 0 0 0 0 0 127 0" result="hardAlpha"/>
<feOffset dy="3"/>
<feGaussianBlur stdDeviation="0.5"/>
<feColorMatrix type="matrix" values="0 0 0 0 0 0 0 0 0 0 0 0 0 0 0 0 0 0 0.04 0"/>
<feBlend mode="normal" in2="BackgroundImageFix" result="effect1_dropShadow_65_5241"/>
<feColorMatrix in="SourceAlpha" type="matrix" values="0 0 0 0 0 0 0 0 0 0 0 0 0 0 0 0 0 0 127 0" result="hardAlpha"/>
<feOffset dy="3"/>
<feGaussianBlur stdDeviation="4"/>
<feColorMatrix type="matrix" values="0 0 0 0 0 0 0 0 0 0 0 0 0 0 0 0 0 0 0.12 0"/>
<feBlend mode="normal" in2="effect1_dropShadow_65_5241" result="effect2_dropShadow_65_5241"/>
<feBlend mode="normal" in="SourceGraphic" in2="effect2_dropShadow_65_5241" result="shape"/>
</filter>
<clipPath id="clip0_65_5241">
<rect width="343" height="32" rx="8.91" fill="white"/>
</clipPath>
</defs>
</svg>
