<svg width="343" height="32" viewBox="0 0 343 32" fill="none" xmlns="http://www.w3.org/2000/svg">
<g clip-path="url(#clip0_65_5312)">
<rect width="343" height="32" rx="8.91" fill="#767680" fill-opacity="0.12"/>
<path d="M41.6949 17.7677C41.6949 15.8634 40.2447 14.5524 38.1793 14.5524H35.8355V11.8424H40.6695V10.4288H34.1949V20.9977H38.2159C40.2667 20.9977 41.6949 19.6866 41.6949 17.7677ZM35.8355 19.6061V15.922H37.7911C39.2046 15.922 40.0176 16.5812 40.0176 17.7677C40.0176 18.9469 39.212 19.6061 37.7984 19.6061H35.8355ZM44.011 23.8834C45.637 23.8834 46.3914 23.2755 47.0726 21.3639L50.0462 13.0436H48.3763L46.3841 19.4156H46.2596L44.2601 13.0436H42.5462L45.4319 21.0197L45.3147 21.4298C45.0437 22.2721 44.6189 22.587 43.8719 22.587C43.7254 22.587 43.4837 22.5797 43.3592 22.5577V23.8468C43.5057 23.8688 43.8792 23.8834 44.011 23.8834ZM51.8204 23.0851V20.9977H57.7456V23.0851H59.2032V19.7379H57.958V13.0436H52.2159L51.9229 17.3282C51.8496 18.3976 51.586 19.3717 51 19.7379H50.3555V23.0851H51.8204ZM56.3907 19.7379H52.7432V19.6134C53.1021 19.1154 53.2925 18.3097 53.3658 17.3942L53.5855 14.296H56.3907V19.7379ZM61.2996 23.8834C62.9256 23.8834 63.68 23.2755 64.3611 21.3639L67.3347 13.0436H65.6648L63.6726 19.4156H63.5481L61.5486 13.0436H59.8347L62.7205 21.0197L62.6033 21.4298C62.3323 22.2721 61.9075 22.587 61.1604 22.587C61.0139 22.587 60.7722 22.5797 60.6477 22.5577V23.8468C60.7942 23.8688 61.1678 23.8834 61.2996 23.8834ZM79.467 15.5997C79.262 14.0543 78.0535 12.8898 76.054 12.8898C73.7322 12.8898 72.3186 14.4645 72.3186 16.9913C72.3186 19.5695 73.7395 21.1515 76.0613 21.1515C78.0315 21.1515 79.262 20.0455 79.467 18.4781H77.9363C77.7312 19.3424 77.0501 19.8112 76.054 19.8112C74.7429 19.8112 73.9299 18.7491 73.9299 16.9913C73.9299 15.2701 74.7356 14.2301 76.054 14.2301C77.1087 14.2301 77.7532 14.8234 77.9363 15.5997H79.467ZM82.6987 20.9977V15.4679H82.8379L85.1743 20.6974H86.3315L88.668 15.4679H88.8071V20.9977H90.3452V13.0436H88.4189L85.8408 18.8517H85.7163L83.1455 13.0436H81.168V20.9977H82.6987ZM95.906 21.1515C98.2351 21.1515 99.6633 19.5914 99.6633 17.0206C99.6633 14.4498 98.2278 12.8898 95.906 12.8898C93.5769 12.8898 92.1413 14.4572 92.1413 17.0206C92.1413 19.5914 93.5696 21.1515 95.906 21.1515ZM95.906 19.8112C94.5364 19.8112 93.7673 18.7931 93.7673 17.0206C93.7673 15.2482 94.5364 14.2228 95.906 14.2228C97.2683 14.2228 98.0447 15.2482 98.0447 17.0206C98.0447 18.7858 97.2683 19.8112 95.906 19.8112ZM106.923 13.0436H100.324V14.3033H102.836V20.9977H104.411V14.3033H106.923V13.0436ZM112.601 12.9044C111.517 12.9044 110.58 13.4537 110.096 14.3619H109.979V13.0436H108.463V23.649H110.038V19.7965H110.162C110.58 20.6388 111.481 21.1295 112.616 21.1295C114.63 21.1295 115.912 19.5328 115.912 17.0206C115.912 14.4938 114.63 12.9044 112.601 12.9044ZM112.155 19.7819C110.836 19.7819 110.009 18.7198 110.009 17.0206C110.009 15.3141 110.836 14.2521 112.162 14.2521C113.495 14.2521 114.293 15.2921 114.293 17.0206C114.293 18.7491 113.495 19.7819 112.155 19.7819ZM122.945 18.8663C122.652 19.5109 122 19.8624 121.048 19.8624C119.788 19.8624 118.975 18.9542 118.924 17.5114V17.4381H124.556V16.8961C124.556 14.4059 123.216 12.8898 120.997 12.8898C118.748 12.8898 117.32 14.5084 117.32 17.0353C117.32 19.5768 118.719 21.1515 121.004 21.1515C122.828 21.1515 124.117 20.2726 124.461 18.8663H122.945ZM120.989 14.1715C122.154 14.1715 122.915 15.0138 122.952 16.3029H118.924C119.012 15.0211 119.825 14.1715 120.989 14.1715ZM131.794 13.0436H125.195V14.3033H127.707V20.9977H129.282V14.3033H131.794V13.0436ZM133.327 20.9977H136.476C138.322 20.9977 139.501 19.9357 139.501 18.2511C139.501 16.5739 138.322 15.5118 136.476 15.5118H134.901V13.0436H133.327V20.9977ZM136.359 16.7643C137.311 16.7643 137.934 17.3502 137.934 18.2511C137.934 19.1447 137.318 19.7379 136.359 19.7379H134.901V16.7643H136.359Z" fill="black"/>
<g filter="url(#filter0_dd_65_5312)">
<rect x="168" y="1.99768" width="173" height="28" rx="6.93" fill="white"/>
<rect x="167.75" y="1.74768" width="173.5" height="28.5" rx="7.18" stroke="black" stroke-opacity="0.04" stroke-width="0.5"/>
</g>
<path d="M213.329 20.9977V10.4288H204.54V20.9977H206.437V12.0328H211.447V20.9977H213.329ZM220.018 12.8605C218.919 12.8605 217.989 13.4098 217.528 14.318H217.403V12.9923H215.653V23.6564H217.469V19.7819H217.594C218.004 20.6315 218.89 21.1295 220.04 21.1295C222.062 21.1295 223.321 19.5402 223.321 16.9987C223.321 14.4352 222.047 12.8605 220.018 12.8605ZM219.447 19.6207C218.209 19.6207 217.44 18.6173 217.433 16.9987C217.44 15.38 218.216 14.3766 219.454 14.3766C220.699 14.3766 221.454 15.358 221.454 16.9987C221.454 18.6393 220.707 19.6207 219.447 19.6207ZM228.509 21.1588C230.904 21.1588 232.361 19.5914 232.361 16.9913C232.361 14.4059 230.896 12.8385 228.509 12.8385C226.128 12.8385 224.656 14.4132 224.656 16.9913C224.656 19.5914 226.106 21.1588 228.509 21.1588ZM228.509 19.672C227.241 19.672 226.516 18.6906 226.516 16.9987C226.516 15.3068 227.241 14.3253 228.509 14.3253C229.768 14.3253 230.493 15.3068 230.493 16.9987C230.493 18.6906 229.776 19.672 228.509 19.672ZM241.02 15.6656C240.83 14.0104 239.584 12.8385 237.526 12.8385C235.117 12.8385 233.703 14.3839 233.703 16.9767C233.703 19.5988 235.124 21.1588 237.534 21.1588C239.563 21.1588 240.822 20.0309 241.02 18.3756H239.292C239.101 19.2179 238.471 19.6647 237.526 19.6647C236.289 19.6647 235.542 18.6759 235.542 16.9767C235.542 15.3068 236.281 14.3253 237.526 14.3253C238.522 14.3253 239.123 14.8893 239.292 15.6656H241.02ZM244.391 20.9977V15.5338H244.53L246.735 20.6388H248.038L250.25 15.5338H250.382V20.9977H252.125V12.9923H249.855L247.474 18.566H247.343L244.969 12.9923H242.655V20.9977H244.391ZM257.715 21.1588C260.11 21.1588 261.568 19.5914 261.568 16.9913C261.568 14.4059 260.103 12.8385 257.715 12.8385C255.335 12.8385 253.863 14.4132 253.863 16.9913C253.863 19.5914 255.313 21.1588 257.715 21.1588ZM257.715 19.672C256.448 19.672 255.723 18.6906 255.723 16.9987C255.723 15.3068 256.448 14.3253 257.715 14.3253C258.975 14.3253 259.7 15.3068 259.7 16.9987C259.7 18.6906 258.982 19.672 257.715 19.672ZM268.945 12.9923H262.192V14.4132H264.66V20.9977H266.477V14.4132H268.945V12.9923ZM274.799 12.8605C273.7 12.8605 272.77 13.4098 272.309 14.318H272.184V12.9923H270.434V23.6564H272.25V19.7819H272.374C272.785 20.6315 273.671 21.1295 274.821 21.1295C276.842 21.1295 278.102 19.5402 278.102 16.9987C278.102 14.4352 276.828 12.8605 274.799 12.8605ZM274.228 19.6207C272.99 19.6207 272.221 18.6173 272.213 16.9987C272.221 15.38 272.997 14.3766 274.235 14.3766C275.48 14.3766 276.234 15.358 276.234 16.9987C276.234 18.6393 275.487 19.6207 274.228 19.6207ZM285.054 18.8077C284.791 19.4083 284.168 19.7452 283.267 19.7452C282.073 19.7452 281.304 18.8956 281.26 17.5406V17.4454H286.856V16.8668C286.856 14.3546 285.487 12.8385 283.201 12.8385C280.88 12.8385 279.437 14.4572 279.437 17.028C279.437 19.5914 280.858 21.1588 283.216 21.1588C285.106 21.1588 286.446 20.2506 286.776 18.8077H285.054ZM283.194 14.2521C284.285 14.2521 285.003 15.0211 285.04 16.2369H281.268C281.348 15.0358 282.11 14.2521 283.194 14.2521ZM293.787 20.9977H295.603V12.9923H293.787V16.1637H290.395V12.9923H288.579V20.9977H290.395V17.5846H293.787V20.9977ZM301.193 21.1588C303.588 21.1588 305.046 19.5914 305.046 16.9913C305.046 14.4059 303.581 12.8385 301.193 12.8385C298.813 12.8385 297.341 14.4132 297.341 16.9913C297.341 19.5914 298.791 21.1588 301.193 21.1588ZM301.193 19.672C299.926 19.672 299.201 18.6906 299.201 16.9987C299.201 15.3068 299.926 14.3253 301.193 14.3253C302.453 14.3253 303.178 15.3068 303.178 16.9987C303.178 18.6906 302.46 19.672 301.193 19.672Z" fill="black"/>
</g>
<defs>
<filter id="filter0_dd_65_5312" x="159.5" y="-3.50232" width="190" height="45" filterUnits="userSpaceOnUse" color-interpolation-filters="sRGB">
<feFlood flood-opacity="0" result="BackgroundImageFix"/>
<feColorMatrix in="SourceAlpha" type="matrix" values="0 0 0 0 0 0 0 0 0 0 0 0 0 0 0 0 0 0 127 0" result="hardAlpha"/>
<feOffset dy="3"/>
<feGaussianBlur stdDeviation="0.5"/>
<feColorMatrix type="matrix" values="0 0 0 0 0 0 0 0 0 0 0 0 0 0 0 0 0 0 0.04 0"/>
<feBlend mode="normal" in2="BackgroundImageFix" result="effect1_dropShadow_65_5312"/>
<feColorMatrix in="SourceAlpha" type="matrix" values="0 0 0 0 0 0 0 0 0 0 0 0 0 0 0 0 0 0 127 0" result="hardAlpha"/>
<feOffset dy="3"/>
<feGaussianBlur stdDeviation="4"/>
<feColorMatrix type="matrix" values="0 0 0 0 0 0 0 0 0 0 0 0 0 0 0 0 0 0 0.12 0"/>
<feBlend mode="normal" in2="effect1_dropShadow_65_5312" result="effect2_dropShadow_65_5312"/>
<feBlend mode="normal" in="SourceGraphic" in2="effect2_dropShadow_65_5312" result="shape"/>
</filter>
<clipPath id="clip0_65_5312">
<rect width="343" height="32" rx="8.91" fill="white"/>
</clipPath>
</defs>
</svg>
