<svg width="90" height="21" viewBox="0 0 90 21" fill="none" xmlns="http://www.w3.org/2000/svg">
<path d="M43.9531 17V4.31738H33.6787V17H35.6562V6.03125H42.002V17H43.9531ZM50.8066 17.1846C53.6015 17.1846 55.3154 15.3125 55.3154 12.2275C55.3154 9.14258 53.5927 7.27051 50.8066 7.27051C48.0117 7.27051 46.289 9.15137 46.289 12.2275C46.289 15.3125 48.0029 17.1846 50.8066 17.1846ZM50.8066 15.5762C49.163 15.5762 48.2402 14.3545 48.2402 12.2275C48.2402 10.1006 49.163 8.87012 50.8066 8.87012C52.4413 8.87012 53.373 10.1006 53.373 12.2275C53.373 14.3457 52.4413 15.5762 50.8066 15.5762ZM59.2948 17L63.663 10.2764H63.8124V17H65.6844V7.45508H63.8124L59.4442 14.1523H59.2948V7.45508H57.4227V17H59.2948ZM76.3787 10.5225C76.1326 8.66797 74.6824 7.27051 72.283 7.27051C69.4969 7.27051 67.8006 9.16016 67.8006 12.1924C67.8006 15.2861 69.5057 17.1846 72.2918 17.1846C74.6561 17.1846 76.1326 15.8574 76.3787 13.9766H74.5418C74.2957 15.0137 73.4783 15.5762 72.283 15.5762C70.7098 15.5762 69.7342 14.3018 69.7342 12.1924C69.7342 10.127 70.701 8.87891 72.283 8.87891C73.5486 8.87891 74.3221 9.59082 74.5418 10.5225H76.3787ZM80.7624 12.7812L84.1814 17H86.5369L82.3093 11.9023L86.3611 7.45508H84.1374L80.7537 11.3574H80.2615V7.45508H78.3718V17H80.2615V12.7812H80.7624Z" fill="black"/>
<path d="M8.57621 16.99C10.4275 16.99 12.1561 16.3935 13.5613 15.3993L18.8476 20.6355C19.0929 20.8785 19.4164 21 19.7509 21C20.4758 21 21 20.4477 21 19.7407C21 19.4093 20.8885 19.0999 20.6431 18.8569L15.3903 13.6428C16.4944 12.2067 17.1524 10.4282 17.1524 8.495C17.1524 3.8222 13.2937 0 8.57621 0C3.84758 0 0 3.8222 0 8.495C0 13.1678 3.84758 16.99 8.57621 16.99ZM8.57621 15.1562C4.88476 15.1562 1.8513 12.1405 1.8513 8.495C1.8513 4.84955 4.88476 1.83377 8.57621 1.83377C12.2565 1.83377 15.3011 4.84955 15.3011 8.495C15.3011 12.1405 12.2565 15.1562 8.57621 15.1562Z" fill="#002DFF"/>
</svg>
