<svg width="124" height="21" viewBox="0 0 124 21" fill="none" xmlns="http://www.w3.org/2000/svg">
<path d="M35.1533 17H44.2412V19.5049H46.0518V15.2949H44.4697V4.31738H36.0586L35.5928 12.0078C35.4961 13.6865 35.1797 14.7676 34.2744 15.2949H33.3516V19.5049H35.1533V17ZM37.4209 12.0957L37.8076 6.01367H42.501V15.2949H36.5684V15.1807C37.1572 14.4688 37.333 13.5107 37.4209 12.0957ZM51.8417 17.1846C54.6367 17.1846 56.3505 15.3125 56.3505 12.2275C56.3505 9.14258 54.6279 7.27051 51.8417 7.27051C49.0468 7.27051 47.3242 9.15137 47.3242 12.2275C47.3242 15.3125 49.038 17.1846 51.8417 17.1846ZM51.8417 15.5762C50.1982 15.5762 49.2753 14.3545 49.2753 12.2275C49.2753 10.1006 50.1982 8.87012 51.8417 8.87012C53.4765 8.87012 54.4081 10.1006 54.4081 12.2275C54.4081 14.3457 53.4765 15.5762 51.8417 15.5762ZM62.58 17.1846C65.3837 17.1846 67.1239 15.3389 67.1239 12.3242C67.1239 9.44141 65.4188 7.69238 62.9139 7.69238C61.3231 7.69238 60.2684 8.43066 59.6971 9.47656H59.5477C59.829 7.20898 60.576 5.92578 63.0546 5.82031L64.1005 5.78516C65.911 5.71484 66.4911 5.2666 66.4911 5.2666V3.68457C66.4999 3.68457 65.5067 4.08887 63.995 4.15039L62.9491 4.19434C59.2401 4.35254 58.0096 6.88379 58.0096 11.4365C58.0096 15.3125 59.6884 17.1846 62.58 17.1846ZM62.5624 15.5762C60.9012 15.5762 59.952 14.3984 59.952 12.3418C59.952 10.3818 60.9012 9.25684 62.5624 9.25684C64.2235 9.25684 65.1727 10.3818 65.1727 12.3418C65.1727 14.3984 64.2323 15.5762 62.5624 15.5762ZM71.9031 17.1582C73.16 17.1582 74.2059 16.6133 74.7772 15.6465H74.9266V17H76.7459V10.4697C76.7459 8.46582 75.3924 7.27051 72.993 7.27051C70.8221 7.27051 69.2752 8.31641 69.0818 9.9248H70.91C71.1209 9.23047 71.8504 8.83496 72.9051 8.83496C74.1971 8.83496 74.865 9.42383 74.865 10.4697V11.3047L72.2723 11.4629C69.9959 11.6035 68.7127 12.5967 68.7127 14.3105C68.7127 16.0508 70.0574 17.1582 71.9031 17.1582ZM72.3865 15.6377C71.3582 15.6377 70.6111 15.1191 70.6111 14.2314C70.6111 13.3613 71.2088 12.8955 72.5272 12.8076L74.865 12.6494V13.4756C74.865 14.7061 73.8104 15.6377 72.3865 15.6377ZM83.6257 17C85.7263 17 86.9831 15.9102 86.9831 14.2666C86.9831 13.124 86.1746 12.2627 84.9353 12.1133V11.9639C85.8757 11.7881 86.5525 10.9004 86.5525 9.91602C86.5525 8.42188 85.4538 7.45508 83.5818 7.45508H79.2663V17H83.6257ZM81.1384 8.85254H83.2214C84.2234 8.85254 84.698 9.37109 84.698 10.1445C84.698 10.9971 84.1531 11.4541 83.0105 11.4541H81.1384V8.85254ZM81.1384 12.8252H83.1599C84.4255 12.8252 85.0759 13.2734 85.0759 14.1963C85.0759 15.084 84.4958 15.5938 83.3972 15.5938H81.1384V12.8252ZM91.0153 17L95.3835 10.2764H95.5329V17H97.405V7.45508H95.5329L91.1647 14.1523H91.0153V7.45508H89.1432V17H91.0153ZM107.124 7.45508H99.2047V8.9668H102.219V17H104.109V8.9668H107.124V7.45508ZM108.915 17H112.694C114.909 17 116.324 15.7256 116.324 13.7041C116.324 11.6914 114.909 10.417 112.694 10.417H110.804V7.45508H108.915V17ZM112.553 11.9199C113.696 11.9199 114.443 12.623 114.443 13.7041C114.443 14.7764 113.705 15.4883 112.553 15.4883H110.804V11.9199H112.553Z" fill="black"/>
<path d="M9.33333 0H11.6667V21H9.33333V0Z" fill="#002DFF"/>
<path d="M21 9.33333V11.6667L0 11.6667L8.15943e-08 9.33333H21Z" fill="#002DFF"/>
</svg>
